<svg id="Stockholm-icons-_-Navigation-_-Waiting" data-name="Stockholm-icons-/-Navigation-/-Waiting" xmlns="http://www.w3.org/2000/svg" width="24" height="24" viewBox="0 0 24 24">
  <rect id="bound" width="24" height="24" fill="none"/>
  <path id="Oval" d="M19.5,10.5H21a1.5,1.5,0,0,1,0,3H19.5a1.5,1.5,0,0,1,0-3ZM16.061,5.871l1.061-1.061a1.5,1.5,0,1,1,2.121,2.121L18.182,7.993a1.5,1.5,0,1,1-2.121-2.121Zm0,12.311a1.5,1.5,0,1,1,2.121-2.121l1.061,1.061a1.5,1.5,0,1,1-2.121,2.121ZM3,10.5H4.5a1.5,1.5,0,0,1,0,3H3a1.5,1.5,0,0,1,0-3Zm9-9A1.5,1.5,0,0,1,13.5,3V4.5a1.5,1.5,0,0,1-3,0V3A1.5,1.5,0,0,1,12,1.5ZM12,18a1.5,1.5,0,0,1,1.5,1.5V21a1.5,1.5,0,0,1-3,0V19.5A1.5,1.5,0,0,1,12,18ZM4.811,4.811a1.5,1.5,0,0,1,2.121,0L7.993,5.871A1.5,1.5,0,1,1,5.871,7.993L4.811,6.932A1.5,1.5,0,0,1,4.811,4.811Zm0,14.432a1.5,1.5,0,0,1,0-2.121l1.061-1.061a1.5,1.5,0,1,1,2.121,2.121L6.932,19.243A1.5,1.5,0,0,1,4.811,19.243Z" fill="#5e63ff"/>
</svg>
